<?xml version="1.0" standalone="no"?>
<!DOCTYPE svg PUBLIC "-//W3C//DTD SVG 20010904//EN"
 "http://www.w3.org/TR/2001/REC-SVG-20010904/DTD/svg10.dtd">
<svg version="1.0" xmlns="http://www.w3.org/2000/svg"
 width="1080.000000pt" height="528.000000pt" viewBox="0 0 1080.000000 528.000000"
 preserveAspectRatio="xMidYMid meet">

<g transform="translate(0.000000,528.000000) scale(0.100000,-0.100000)"
fill="#000000" stroke="none">
<path d="M1544 4592 c-30 -20 -34 -55 -34 -312 0 -144 -3 -260 -7 -258 -5 2
-32 16 -61 31 -72 38 -189 60 -270 52 -261 -27 -407 -167 -476 -455 -35 -147
-46 -255 -46 -477 0 -555 131 -837 421 -908 141 -35 315 -10 420 60 22 14 39
21 39 16 0 -6 10 -19 22 -31 21 -19 34 -20 244 -20 203 0 224 2 245 19 l24 19
0 1115 c0 1082 -1 1116 -19 1136 -18 20 -28 21 -255 21 -130 0 -241 -4 -247
-8z m454 -1144 l2 -1088 -200 0 -200 0 -1 88 0 87 -22 -29 c-115 -155 -253
-214 -436 -187 -168 25 -277 114 -345 280 -95 233 -112 739 -35 1046 70 277
235 409 491 392 118 -8 232 -68 289 -152 13 -19 27 -35 32 -35 4 0 7 155 7
345 l0 345 208 -2 207 -3 3 -1087z"/>
<path d="M1300 3707 c-71 -24 -110 -72 -136 -169 -23 -87 -36 -344 -25 -519
19 -286 72 -379 219 -379 94 0 155 54 187 164 32 112 43 376 25 582 -18 206
-65 298 -163 323 -54 13 -61 13 -107 -2z m129 -82 c57 -49 80 -173 81 -440 0
-317 -30 -443 -114 -474 -33 -13 -44 -13 -79 0 -80 27 -104 110 -114 384 -10
300 19 484 85 535 37 29 102 27 141 -5z"/>
<path d="M8010 4580 c-19 -19 -20 -33 -20 -279 0 -308 -2 -302 99 -309 l62 -4
-6 -32 c-12 -54 -39 -90 -85 -114 -67 -33 -70 -40 -70 -178 0 -109 2 -124 22
-149 20 -25 25 -27 73 -21 184 21 324 121 384 273 46 118 55 200 56 504 0 268
-1 288 -19 308 -18 20 -28 21 -248 21 -215 0 -229 -1 -248 -20z m448 -337 c-4
-263 -7 -307 -26 -375 -27 -98 -43 -130 -100 -191 -51 -54 -101 -83 -177 -103
-97 -26 -95 -29 -95 90 l0 104 30 12 c42 17 97 82 109 127 6 21 11 63 13 93
l3 55 -77 3 -78 3 0 239 0 240 201 0 201 0 -4 -297z"/>
<path d="M2702 4099 c-95 -12 -211 -47 -272 -82 -156 -88 -250 -267 -250 -473
0 -56 4 -68 25 -89 24 -25 25 -25 228 -25 192 0 206 1 231 21 22 18 26 28 26
75 0 108 43 159 135 158 62 -1 90 -15 110 -54 17 -33 20 -96 5 -134 -13 -36
-63 -57 -245 -105 -88 -24 -189 -54 -225 -68 -235 -93 -339 -257 -340 -534 0
-171 51 -318 144 -413 89 -91 181 -126 337 -126 130 0 235 27 314 81 35 24 61
36 63 30 2 -7 15 -25 29 -41 l25 -30 220 0 c135 0 227 4 239 11 36 19 41 54
17 112 -22 51 -23 63 -29 657 -5 513 -9 614 -23 668 -57 222 -209 330 -506
362 -108 11 -168 11 -258 -1z m390 -88 c169 -44 260 -125 309 -276 9 -30 14
-195 18 -650 6 -584 7 -612 27 -667 l21 -58 -203 0 -203 0 -21 66 c-11 36 -20
72 -20 80 0 25 -14 14 -49 -36 -41 -60 -133 -124 -198 -138 -304 -65 -500 42
-563 308 -18 76 -16 241 4 319 47 185 153 272 422 347 333 92 354 103 373 195
32 147 -44 249 -184 249 -121 0 -187 -62 -193 -181 l-4 -69 -189 0 -189 0 0
68 c0 201 109 362 290 428 134 48 397 56 552 15z"/>
<path d="M2950 3140 c-30 -16 -85 -36 -122 -45 -102 -26 -166 -69 -201 -135
-27 -51 -29 -61 -25 -145 7 -143 48 -203 146 -212 97 -10 203 54 246 147 18
39 21 69 24 233 2 103 0 187 -5 187 -4 -1 -33 -14 -63 -30z m0 -200 c0 -161
-20 -209 -103 -252 -55 -28 -124 -22 -150 14 -25 34 -38 117 -28 175 16 84 60
121 190 159 42 12 79 22 84 23 4 1 7 -53 7 -119z"/>
<path d="M4405 4096 c-92 -19 -146 -39 -199 -76 -52 -35 -56 -36 -56 -12 0 11
-8 26 -18 35 -16 15 -49 17 -250 17 -227 0 -231 0 -246 -22 -14 -20 -16 -119
-16 -865 0 -830 0 -843 20 -863 19 -19 33 -20 253 -20 186 0 237 3 253 14 18
14 19 35 24 623 5 603 5 608 27 649 26 48 72 74 133 74 49 0 75 -12 92 -43 10
-17 14 -168 18 -650 l5 -629 24 -19 c21 -17 42 -19 251 -19 209 0 230 2 251
19 l24 19 0 684 0 683 -24 84 c-31 110 -87 191 -167 246 -100 69 -263 97 -399
71z m287 -86 c73 -27 150 -96 183 -163 53 -109 55 -138 55 -839 l0 -648 -210
0 -209 0 -3 618 -3 617 -23 41 c-28 47 -60 69 -119 78 -94 14 -184 -29 -226
-107 -22 -42 -22 -42 -25 -644 l-3 -603 -214 0 -215 0 2 818 3 817 203 3 202
2 1 -97 c0 -80 2 -94 12 -78 25 40 111 126 151 148 40 24 115 51 166 61 59 11
216 -2 272 -24z"/>
<path d="M5925 4101 c-86 -14 -158 -39 -215 -75 l-54 -34 -12 27 c-7 16 -19
31 -29 35 -9 3 -117 6 -239 6 -214 0 -224 -1 -242 -21 -18 -20 -19 -49 -19
-866 l0 -845 24 -19 c21 -17 42 -19 256 -19 l234 0 20 26 c21 26 21 35 21 618
0 558 1 593 19 633 11 23 31 49 45 58 34 23 108 31 145 16 57 -24 56 -12 61
-694 5 -608 6 -629 24 -643 16 -11 67 -14 253 -14 220 0 234 1 253 20 20 20
20 33 20 689 0 724 -2 753 -55 868 -47 103 -160 194 -275 221 -66 16 -178 22
-235 13z m197 -72 c126 -26 224 -109 267 -223 36 -97 41 -198 41 -833 l0 -613
-212 0 -213 0 0 608 0 607 -25 50 c-33 66 -74 89 -154 88 -102 0 -158 -35
-200 -123 -21 -44 -21 -57 -24 -637 l-3 -593 -209 0 -210 0 0 820 0 820 200 0
200 0 0 -95 c0 -95 7 -115 27 -72 20 42 81 102 139 137 103 62 251 85 376 59z"/>
<path d="M9189 4100 c-297 -37 -480 -181 -533 -417 -21 -97 -20 -193 4 -288
25 -98 58 -155 130 -225 71 -71 153 -113 370 -190 214 -77 245 -92 265 -130
31 -60 10 -136 -45 -165 -37 -19 -133 -19 -170 0 -45 23 -70 82 -70 160 0 57
-3 69 -25 90 -24 25 -24 25 -235 25 -261 0 -250 6 -250 -137 1 -386 214 -572
653 -573 439 0 690 213 689 585 0 173 -44 287 -145 381 -76 71 -154 109 -369
183 -256 87 -278 101 -278 175 0 57 30 94 85 106 99 23 142 -12 157 -127 15
-117 7 -113 263 -113 201 0 213 1 231 21 41 45 23 252 -32 366 -60 124 -183
214 -345 252 -99 24 -257 33 -350 21z m266 -70 c274 -44 415 -198 415 -454 l0
-66 -189 0 -188 0 -6 60 c-6 70 -32 125 -71 154 -23 17 -42 21 -110 21 -71 0
-87 -3 -119 -25 -86 -58 -102 -185 -34 -258 33 -36 84 -59 273 -123 212 -71
302 -116 366 -180 63 -63 96 -135 110 -244 24 -181 -26 -341 -142 -448 -115
-107 -249 -149 -470 -150 -165 0 -258 16 -356 62 -155 72 -225 194 -240 418
l-7 93 190 0 190 0 6 -69 c12 -143 90 -221 222 -221 92 0 173 48 195 116 15
45 15 126 -1 156 -17 34 -50 68 -83 85 -15 8 -110 44 -210 80 -235 85 -301
119 -375 199 -78 83 -103 146 -109 278 -7 160 25 261 116 358 74 79 173 128
307 153 85 16 238 18 320 5z"/>
<path d="M6505 4040 c-9 -10 -17 -30 -17 -42 0 -13 102 -384 226 -826 124
-441 226 -818 226 -838 0 -19 -9 -53 -21 -75 -29 -59 -70 -73 -181 -65 -130
10 -128 13 -128 -213 0 -244 -17 -226 227 -225 279 2 371 30 479 147 68 73
121 182 173 358 55 184 451 1715 451 1743 0 13 -8 30 -18 39 -16 15 -49 17
-259 17 -216 0 -241 -2 -255 -17 -10 -12 -44 -170 -93 -428 -42 -225 -78 -411
-80 -413 -5 -6 -10 15 -95 413 -45 209 -83 388 -86 397 -14 47 -21 48 -283 48
-234 0 -249 -1 -266 -20z m489 -57 c3 -10 58 -264 122 -566 65 -301 121 -544
124 -540 4 5 53 256 109 558 57 303 105 553 108 558 2 4 96 7 209 7 162 0 204
-3 204 -13 0 -23 -409 -1596 -446 -1717 -44 -144 -100 -262 -152 -320 -85 -97
-196 -129 -444 -130 l-148 0 0 154 0 154 103 4 c95 3 107 5 140 31 21 16 46
46 57 68 45 87 51 59 -195 934 -125 446 -230 816 -232 823 -4 9 43 12 215 12
202 0 221 -2 226 -17z"/>
<path d="M3965 2199 c-100 -73 -276 -331 -424 -624 -60 -119 -77 -145 -117
-175 -25 -19 -54 -49 -62 -68 -16 -33 -16 -35 5 -51 l21 -17 -59 -137 c-190
-446 -208 -707 -46 -707 77 0 141 60 230 215 168 292 206 625 85 737 l-39 36
73 36 c92 46 155 55 207 32 66 -30 111 -8 97 47 -15 60 -99 72 -226 31 -45
-14 -84 -24 -86 -21 -7 6 134 245 207 353 38 55 99 136 135 179 81 98 88 109
74 135 -14 26 -38 25 -75 -1z m-416 -918 c35 -35 45 -96 33 -197 -15 -118 -42
-205 -107 -339 -87 -181 -148 -244 -187 -195 -49 60 10 285 174 658 23 51 47
92 54 92 8 0 23 -9 33 -19z"/>
<path d="M5106 2138 c-57 -52 -342 -593 -464 -883 -97 -230 -109 -284 -70
-308 25 -17 39 1 106 136 67 134 145 237 227 299 27 20 51 36 53 34 2 -2 -22
-48 -53 -102 -89 -158 -109 -261 -60 -309 13 -14 32 -25 42 -25 33 1 101 38
148 81 84 78 182 246 158 270 -18 18 -42 -2 -102 -86 -85 -117 -144 -161 -166
-124 -14 21 40 134 122 257 45 69 83 133 83 142 0 30 -36 53 -72 46 -39 -8
-121 -60 -201 -129 l-58 -50 26 59 c43 99 153 300 256 474 55 90 99 174 99
187 0 22 -24 53 -40 53 -5 0 -20 -10 -34 -22z"/>
<path d="M8072 2131 c-53 -58 -278 -474 -390 -721 -102 -226 -162 -381 -162
-419 0 -32 27 -56 52 -46 7 3 39 58 70 123 68 139 141 238 223 304 32 26 62
48 66 48 4 0 -19 -46 -52 -102 -125 -218 -114 -364 23 -327 93 25 304 297 262
339 -19 19 -43 -1 -98 -79 -60 -86 -117 -141 -146 -141 -52 0 -5 121 116 298
35 51 64 101 64 111 0 10 -9 26 -20 36 -37 33 -102 4 -237 -107 l-72 -59 33
74 c63 136 241 455 323 577 27 40 30 82 7 104 -22 22 -32 20 -62 -13z"/>
<path d="M6163 2129 c-51 -25 -109 -87 -134 -143 -26 -60 -42 -178 -34 -253
l7 -63 -47 -20 c-67 -29 -173 -100 -224 -151 -24 -24 -60 -78 -80 -119 -34
-72 -36 -80 -36 -180 0 -120 17 -169 83 -234 59 -60 86 -71 182 -71 96 0 145
18 219 81 l42 37 17 -24 c53 -78 119 -112 212 -112 99 1 180 41 180 90 0 33
-20 38 -101 24 -89 -14 -137 -3 -174 41 -51 60 -51 65 2 154 27 44 64 127 83
185 19 57 35 105 36 107 1 1 41 10 90 18 60 11 112 14 161 9 71 -7 73 -6 84
19 10 20 9 30 -5 50 -23 36 -70 41 -211 22 -68 -9 -160 -16 -205 -16 -100 0
-120 -9 -120 -55 0 -40 10 -48 70 -55 41 -5 45 -8 43 -30 -3 -28 -101 -230
-112 -230 -8 0 -56 236 -66 325 -4 28 -8 62 -11 76 -4 23 2 30 63 67 143 85
220 186 230 300 11 138 -115 215 -244 151z m114 -111 c52 -49 17 -162 -74
-234 -44 -35 -90 -64 -99 -64 -3 0 -4 44 -2 98 5 112 28 170 81 202 41 26 65
25 94 -2z m-267 -445 c0 -5 9 -67 19 -139 19 -127 40 -225 64 -291 10 -29 8
-35 -13 -58 -36 -38 -118 -75 -167 -75 -60 0 -104 21 -141 66 -62 75 -65 201
-7 300 34 58 118 140 180 175 52 30 65 34 65 22z"/>
<path d="M4197 1901 c-40 -36 -60 -77 -55 -117 2 -24 8 -30 35 -32 58 -6 129
79 121 144 -2 24 -8 30 -35 32 -23 2 -40 -5 -66 -27z"/>
<path d="M8515 1887 c-44 -47 -57 -80 -44 -115 12 -33 60 -29 102 8 40 35 60
76 55 116 -3 25 -8 29 -37 32 -28 3 -39 -3 -76 -41z"/>
<path d="M8673 1658 c-64 -70 -326 -567 -467 -888 -126 -284 -147 -366 -104
-394 22 -14 53 14 69 63 19 59 135 332 190 450 l52 110 28 -14 c119 -62 300
72 413 304 54 112 62 196 23 235 -33 32 -91 35 -147 6 -22 -11 -42 -20 -45
-20 -2 0 9 22 26 50 21 35 29 59 27 82 -4 41 -34 49 -65 16z m115 -236 c4 -37
-37 -133 -86 -204 -75 -108 -169 -170 -226 -149 l-27 11 52 98 c66 123 96 167
151 218 54 52 76 65 108 61 20 -2 26 -8 28 -35z"/>
<path d="M4399 1611 c-31 -10 -76 -32 -101 -49 -126 -87 -149 -191 -71 -318
57 -93 63 -107 63 -141 0 -72 -82 -98 -140 -46 -39 35 -48 89 -26 153 21 60
20 70 -7 70 -32 0 -65 -38 -83 -96 -30 -97 9 -198 89 -235 123 -56 267 27 267
154 0 33 -14 64 -78 177 -55 95 -36 164 62 224 37 23 60 30 100 31 48 0 51 -1
54 -27 4 -36 -36 -74 -92 -88 -76 -19 -88 -28 -84 -58 3 -24 8 -27 42 -30 127
-11 270 136 234 240 -20 57 -119 74 -229 39z"/>
<path d="M9242 1612 c-74 -27 -148 -80 -182 -131 -24 -35 -30 -55 -30 -97 0
-64 10 -91 61 -170 22 -34 42 -77 45 -95 14 -83 -87 -123 -147 -58 -24 26 -29
40 -29 80 0 27 7 66 15 86 18 42 9 59 -28 49 -52 -13 -89 -122 -73 -211 14
-74 96 -135 181 -135 48 0 129 43 152 81 43 72 37 122 -26 228 -52 85 -62 120
-50 165 24 86 195 173 239 121 28 -34 -21 -86 -106 -111 -60 -17 -78 -34 -69
-64 18 -55 191 5 248 87 20 27 31 58 34 90 4 42 2 51 -22 73 -35 33 -136 39
-213 12z"/>
<path d="M7241 1539 c-139 -93 -280 -315 -281 -442 0 -128 119 -185 250 -120
66 33 205 169 240 236 24 44 24 47 7 64 -17 17 -22 13 -113 -84 -67 -73 -110
-109 -148 -128 -64 -31 -92 -30 -119 7 -18 24 -18 31 -7 77 28 119 193 331
256 331 22 0 24 -3 18 -22 -8 -27 -37 -69 -59 -88 -8 -7 -15 -25 -15 -41 0
-65 85 -17 132 75 29 55 31 142 4 162 -38 27 -98 18 -165 -27z"/>
<path d="M3989 1488 c-104 -149 -175 -294 -222 -454 -14 -46 -14 -54 0 -74 19
-27 53 -23 70 10 7 14 35 84 63 155 27 72 79 179 116 240 89 149 95 161 88
179 -4 10 -18 16 -35 16 -24 0 -36 -11 -80 -72z"/>
<path d="M8331 1506 c-101 -136 -172 -277 -226 -446 -24 -78 -25 -84 -9 -101
20 -22 47 -25 62 -6 6 7 26 56 45 108 48 132 94 228 159 334 30 50 60 100 67
112 16 31 4 53 -30 53 -23 0 -36 -11 -68 -54z"/>
<path d="M5450 545 l0 -115 85 0 c69 0 85 3 85 15 0 12 -14 15 -70 15 l-70 0
0 40 0 40 66 0 c48 0 65 3 62 13 -3 7 -28 13 -66 15 l-62 3 0 34 0 35 65 0
c37 0 65 4 65 10 0 6 -33 10 -80 10 l-80 0 0 -115z"/>
<path d="M5833 649 c-7 -7 -13 -21 -13 -30 0 -10 -6 -20 -12 -23 -10 -5 -10
-7 0 -12 8 -4 12 -28 12 -68 0 -64 11 -86 42 -86 22 0 24 18 3 26 -11 5 -15
22 -15 65 0 46 3 59 15 59 8 0 15 5 15 10 0 6 -6 10 -14 10 -9 0 -16 12 -18
31 -2 24 -5 28 -15 18z"/>
<path d="M6150 651 c0 -6 -13 -18 -30 -28 -16 -9 -30 -23 -30 -30 0 -11 6 -10
30 2 l30 16 0 -92 c0 -68 3 -90 13 -87 8 3 13 38 15 116 2 95 0 112 -13 112
-8 0 -15 -4 -15 -9z"/>
<path d="M6265 636 c-24 -36 -16 -85 18 -110 27 -20 29 -20 58 -4 28 16 29 16
29 -3 0 -37 -19 -59 -51 -59 -17 0 -32 6 -35 15 -7 17 -34 21 -34 5 0 -19 40
-50 64 -50 14 0 37 11 53 24 26 22 28 30 28 96 0 63 -3 74 -24 91 -34 28 -87
25 -106 -5z m89 -12 c19 -18 21 -55 4 -72 -19 -19 -55 -14 -72 9 -16 23 -12
47 12 67 21 16 37 15 56 -4z"/>
<path d="M6430 645 c0 -12 13 -15 55 -15 l54 0 -24 -36 c-24 -35 -55 -121 -55
-151 0 -7 7 -13 15 -13 8 0 15 8 15 18 0 35 21 89 55 146 19 32 35 60 35 62 0
2 -34 4 -75 4 -60 0 -75 -3 -75 -15z"/>
<path d="M6626 630 c-3 -16 -9 -43 -12 -60 -6 -32 4 -38 35 -19 27 17 70 3 77
-25 13 -55 -45 -88 -87 -50 -10 9 -24 14 -31 12 -22 -8 38 -58 70 -58 57 0 98
82 62 126 -21 25 -58 36 -81 24 -20 -11 -22 -8 -13 28 5 18 13 22 50 22 32 0
44 4 44 15 0 11 -13 15 -54 15 -52 0 -55 -1 -60 -30z"/>
<path d="M5666 584 c-32 -31 -9 -65 54 -81 20 -5 35 -16 35 -24 0 -19 -42 -24
-71 -8 -13 7 -27 9 -31 5 -13 -13 37 -46 68 -46 27 0 69 29 69 48 0 19 -28 43
-65 55 -42 15 -53 39 -21 45 10 2 29 -2 42 -9 30 -15 40 -7 19 15 -21 20 -79
21 -99 0z"/>
<path d="M5912 448 c6 -18 28 -21 28 -4 0 9 -7 16 -16 16 -9 0 -14 -5 -12 -12z"/>
</g>
</svg>
